<svg width="24" height="24" viewBox="0 0 24 24" fill="none" xmlns="http://www.w3.org/2000/svg"><path fill-rule="evenodd" clip-rule="evenodd" d="M6 4.496A2.498 2.498 0 018.503 2c1.38 0 2.5 1.117 2.5 2.496a2.503 2.503 0 01-4.27 1.765 2.494 2.494 0 01-.731-1.765zm7.894 8.037l-1-1.897a3.001 3.001 0 00-2.632-1.647h-3.52c-1.135 0-2.172.637-2.682 1.647l-.95 1.897A.997.997 0 004 13.981h9.003a1 1 0 00.89-1.448zm4.11-8.037a2.498 2.498 0 01-2.5 2.496 2.493 2.493 0 01-1.771-.728A2.498 2.498 0 0115.504 2c1.381 0 2.5 1.117 2.5 2.496zm2.892 8.037l-.95-1.897a3.002 3.002 0 00-2.681-1.647h-3.001c.183.237.344.491.48.759l.95 1.886a2.99 2.99 0 01.13 2.347h4.182a1 1 0 00.89-1.448zm-7.283 3.444h3.892a.52.52 0 01.57.5v3.883a.49.49 0 01-.85.35l-1-.998a7.01 7.01 0 01-6.95 2.061 6.995 6.995 0 01-5.055-5.186.528.528 0 01.1-.42.49.49 0 01.39-.19h1a.5.5 0 01.481.32 5.008 5.008 0 008.533 1.997l-1.46-1.468a.498.498 0 01.35-.849z" fill="#373743"></path></svg>