<svg width="60" height="60" viewBox="0 0 60 60" fill="none" xmlns="http://www.w3.org/2000/svg">
<circle cx="30" cy="30" r="29.5" stroke="#373743"></circle>
<path fill-rule="evenodd" clip-rule="evenodd" d="M31 27h6a2 2 0 012 2v6a1 1 0 01-1 1v3a1 1 0 01-1 1H23a1 1 0 01-1-1v-3a1 1 0 01-1-1v-6a2 2 0 012-2h6v-2.28A2 2 0 0128 23a6.65 6.65 0 011.46-2.8.48.48 0 01.4-.2h.28a.48.48 0 01.4.2A6.65 6.65 0 0132 23a2 2 0 01-1 1.72V27zm-7 8.87V38h12v-2.13a4 4 0 01-2.26-1.59 4.93 4.93 0 01-7.48 0A4 4 0 0124 35.87z" fill="#373743"></path>
</svg>