<svg width="60" height="60" viewBox="0 0 60 60" fill="none" xmlns="http://www.w3.org/2000/svg">
<circle cx="30" cy="30" r="29.5" stroke="#373743"/>
<path d="M35.09 20.82C34.1703 20.0636 33.0933 19.522 31.9377 19.2349C30.782 18.9477 29.5768 18.9221 28.41 19.16C26.8564 19.4738 25.431 20.2421 24.3147 21.3673C23.1984 22.4925 22.4415 23.9239 22.14 25.48C21.9198 26.6467 21.9599 27.8477 22.2572 28.9971C22.5545 30.1466 23.1018 31.2163 23.86 32.13C24.5637 32.9241 24.967 33.9395 25 35V38C25 38.7957 25.3161 39.5587 25.8787 40.1213C26.4413 40.6839 27.2044 41 28 41H32C32.7957 41 33.5587 40.6839 34.1213 40.1213C34.6839 39.5587 35 38.7957 35 38V35.19C35.0336 34.0192 35.4637 32.8944 36.22 32C37.5451 30.3608 38.1698 28.2648 37.9582 26.1676C37.7466 24.0704 36.7159 22.1415 35.09 20.8V20.82ZM33 38C33 38.2652 32.8946 38.5196 32.7071 38.7071C32.5196 38.8947 32.2652 39 32 39H28C27.7348 39 27.4804 38.8947 27.2929 38.7071C27.1054 38.5196 27 38.2652 27 38V37H33V38ZM34.67 30.76C33.6645 31.9526 33.0779 33.442 33 35H31V32C31 31.7348 30.8946 31.4804 30.7071 31.2929C30.5196 31.1054 30.2652 31 30 31C29.7348 31 29.4804 31.1054 29.2929 31.2929C29.1054 31.4804 29 31.7348 29 32V35H27C26.9736 33.4681 26.4069 31.9948 25.4 30.84C24.7356 30.044 24.2889 29.0894 24.1033 28.0694C23.9177 27.0493 23.9997 25.9985 24.3411 25.0195C24.6825 24.0406 25.2718 23.1668 26.0515 22.4833C26.8312 21.7999 27.7747 21.3302 28.79 21.12C29.6626 20.9404 30.5642 20.9572 31.4294 21.1695C32.2946 21.3817 33.1017 21.7839 33.7921 22.347C34.4824 22.91 35.0388 23.6197 35.4207 24.4245C35.8026 25.2294 36.0005 26.1092 36 27C36.0074 28.3699 35.5371 29.6995 34.67 30.76Z" fill="#373743"/>
</svg>
