<svg width="60" height="60" viewBox="0 0 60 60" fill="none" xmlns="http://www.w3.org/2000/svg">
<circle cx="30" cy="30" r="29.5" stroke="#fff"/>
<path d="M30 20C28.0222 20 26.0888 20.5865 24.4443 21.6853C22.7998 22.7841 21.5181 24.3459 20.7612 26.1732C20.0043 28.0004 19.8063 30.0111 20.1921 31.9509C20.578 33.8907 21.5304 35.6725 22.9289 37.0711C24.3275 38.4696 26.1093 39.422 28.0491 39.8079C29.9889 40.1937 31.9996 39.9957 33.8268 39.2388C35.6541 38.4819 37.2159 37.2002 38.3147 35.5557C39.4135 33.9112 40 31.9778 40 30C40 28.6868 39.7413 27.3864 39.2388 26.1732C38.7362 24.9599 37.9997 23.8575 37.0711 22.9289C36.1425 22.0003 35.0401 21.2638 33.8268 20.7612C32.6136 20.2587 31.3132 20 30 20ZM30 38C28.4177 38 26.871 37.5308 25.5554 36.6518C24.2398 35.7727 23.2145 34.5233 22.609 33.0615C22.0035 31.5997 21.845 29.9911 22.1537 28.4393C22.4624 26.8874 23.2243 25.462 24.3431 24.3431C25.462 23.2243 26.8874 22.4624 28.4393 22.1537C29.9911 21.845 31.5997 22.0035 33.0615 22.609C34.5233 23.2145 35.7727 24.2398 36.6518 25.5554C37.5308 26.871 38 28.4177 38 30C38 32.1217 37.1571 34.1566 35.6569 35.6569C34.1566 37.1571 32.1217 38 30 38ZM35.62 27.13C35.0477 26.587 34.2889 26.2843 33.5 26.2843C32.7111 26.2843 31.9523 26.587 31.38 27.13C31.2162 27.3213 31.1306 27.5674 31.1403 27.8191C31.15 28.0707 31.2543 28.3095 31.4324 28.4876C31.6105 28.6657 31.8493 28.77 32.1009 28.7797C32.3526 28.7894 32.5987 28.7038 32.79 28.54C32.883 28.4463 32.9936 28.3719 33.1154 28.3211C33.2373 28.2703 33.368 28.2442 33.5 28.2442C33.632 28.2442 33.7627 28.2703 33.8846 28.3211C34.0064 28.3719 34.117 28.4463 34.21 28.54C34.3974 28.7263 34.6508 28.8308 34.915 28.8308C35.1792 28.8308 35.4326 28.7263 35.62 28.54C35.8063 28.3526 35.9108 28.0992 35.9108 27.835C35.9108 27.5708 35.8063 27.3174 35.62 27.13ZM27 29C27.1978 29 27.3911 28.9414 27.5556 28.8315C27.72 28.7216 27.8482 28.5654 27.9239 28.3827C27.9996 28.2 28.0194 27.9989 27.9808 27.8049C27.9422 27.6109 27.847 27.4327 27.7071 27.2929C27.5673 27.153 27.3891 27.0578 27.1951 27.0192C27.0011 26.9806 26.8 27.0004 26.6173 27.0761C26.4346 27.1518 26.2784 27.28 26.1685 27.4444C26.0586 27.6089 26 27.8022 26 28C26 28.2652 26.1054 28.5196 26.2929 28.7071C26.4804 28.8946 26.7348 29 27 29ZM33 31H27C26.7348 31 26.4804 31.1054 26.2929 31.2929C26.1054 31.4804 26 31.7348 26 32C26 32.2652 26.1054 32.5196 26.2929 32.7071C26.4804 32.8946 26.7348 33 27 33C27 33.7956 27.3161 34.5587 27.8787 35.1213C28.4413 35.6839 29.2044 36 30 36C30.7956 36 31.5587 35.6839 32.1213 35.1213C32.6839 34.5587 33 33.7956 33 33C33.2652 33 33.5196 32.8946 33.7071 32.7071C33.8946 32.5196 34 32.2652 34 32C34 31.7348 33.8946 31.4804 33.7071 31.2929C33.5196 31.1054 33.2652 31 33 31ZM30 34C29.7348 34 29.4804 33.8946 29.2929 33.7071C29.1054 33.5196 29 33.2652 29 33H31C31 33.2652 30.8946 33.5196 30.7071 33.7071C30.5196 33.8946 30.2652 34 30 34Z" fill="#fff"/>
</svg>
