<svg width="60" height="60" viewBox="0 0 60 60" fill="none" xmlns="http://www.w3.org/2000/svg">
<circle cx="30" cy="30" r="29.5" stroke="#373743"></circle>
<path fill-rule="evenodd" clip-rule="evenodd" d="M37 22h-1v-1.5a.5.5 0 00-.5-.5h-1a.5.5 0 00-.5.5V22h-8v-1.5a.5.5 0 00-.5-.5h-1a.5.5 0 00-.5.5V22h-1a2 2 0 00-2 2v13a2 2 0 002 2h14a2 2 0 002-2V24a2 2 0 00-2-2zm0 15H23V26h14v11zm-8.06-2.998a.48.48 0 01-.35-.152l-2.13-2.15a.5.5 0 010-.7l.53-.51a.51.51 0 01.71 0l1.23 1.24 3.36-3.36a.51.51 0 01.71 0l.54.53a.51.51 0 010 .71l-4.25 4.24a.48.48 0 01-.35.151z" fill="#373743"></path>
</svg>