<svg width="60" height="60" viewBox="0 0 60 60" fill="none" xmlns="http://www.w3.org/2000/svg">
<circle cx="30" cy="30" r="29.5" stroke="#fff"/>
<path d="M36.5 39.5H26.738C26.7162 39.5 26.6947 39.4944 26.6757 39.4839C26.6566 39.4733 26.6405 39.458 26.629 39.4395L21.93 31.8635C21.7844 31.6332 21.6863 31.3761 21.6413 31.1074C21.5963 30.8387 21.6055 30.5637 21.6681 30.2985C21.7308 30.0333 21.8458 29.7834 22.0063 29.5632C22.1668 29.343 22.3697 29.1571 22.603 29.0164C22.8363 28.8756 23.0953 28.7828 23.3649 28.7435C23.6346 28.7041 23.9093 28.719 24.1731 28.7872C24.4369 28.8553 24.6845 28.9755 24.9012 29.1406C25.118 29.3057 25.2996 29.5123 25.4355 29.7485L26.6665 31.8455V22.288C26.6664 22.0689 26.7144 21.8524 26.807 21.6538C26.8996 21.4552 27.0345 21.2793 27.2024 21.1385C27.3702 20.9977 27.5669 20.8953 27.7786 20.8387C27.9902 20.782 28.2117 20.7724 28.4275 20.8105L36.76 22.2815C37.1073 22.3426 37.422 22.5242 37.6488 22.7943C37.8756 23.0644 37.9999 23.4058 38 23.7585V38C38 38.3978 37.842 38.7794 37.5607 39.0607C37.2794 39.342 36.8978 39.5 36.5 39.5Z" stroke="#fff" stroke-width="2" stroke-linecap="round" stroke-linejoin="round"/>
</svg>
