<svg width="60" height="60" viewBox="0 0 60 60" fill="none" xmlns="http://www.w3.org/2000/svg">
<circle cx="30" cy="30" r="29.5" stroke="#fff"></circle>
<path fill-rule="evenodd" clip-rule="evenodd" d="M41.24 22.6l-.448-.449a.486.486 0 00-.398-.149H35.92a.497.497 0 00-.498.498v.995c0 .275.223.498.498.498h2.068l-1.776 1.77a7.005 7.005 0 00-9.502 1.015 6.994 6.994 0 00-1.646 3.619h-2.066v-1.5a.5.5 0 00-.5-.5H21.5a.5.5 0 00-.5.5v1.5h-1.5a.5.5 0 00-.499.5v1a.5.5 0 00.5.5H21v1.5a.5.5 0 00.499.5h1a.5.5 0 00.5-.5v-1.5h2.071a6.996 6.996 0 001.98 3.942 7.005 7.005 0 009.55.34 7.024 7.024 0 001.014-9.513l1.786-1.77v2.081c0 .275.223.498.497.498h.995a.497.497 0 00.497-.498v-4.48a.488.488 0 00-.15-.398zm-16.237 9.093c.01.235.033.47.067.704h.008a8.995 8.995 0 01-.075-.704zM25 31.158a7.07 7.07 0 01.065-.762h.014a7.672 7.672 0 00-.079.762zm.004.535zm2.081-.346a4.975 4.975 0 004.972 4.977 4.975 4.975 0 004.972-4.977 4.975 4.975 0 00-4.972-4.978 4.975 4.975 0 00-4.972 4.978z" fill="#fff"></path>
</svg>