<svg width="60" height="60" viewBox="0 0 60 60" fill="none" xmlns="http://www.w3.org/2000/svg">
<circle cx="30" cy="30" r="29.5" stroke="#373743"></circle>
<path fill-rule="evenodd" clip-rule="evenodd" d="M20 30c0-5.523 4.477-10 10-10a10 10 0 11-10 10zm2 0a8 8 0 1016 0 8 8 0 00-16 0zm7.5 4a.5.5 0 00-.5.5v1a.5.5 0 00.5.5h1a.5.5 0 00.5-.5v-1a.5.5 0 00-.5-.5h-1zm1.5-9.88A2.88 2.88 0 0133.88 27l.07.56a2.89 2.89 0 01-2 2.73l-.95.31a.13.13 0 00-.12.12v.78a.5.5 0 01-.5.5h-.76a.5.5 0 01-.5-.5v-.78a1.88 1.88 0 011.29-1.78l.95-.31a1.13 1.13 0 00.76-1.07V27A1.12 1.12 0 0031 25.88h-2A1.12 1.12 0 0027.88 27v.5a.5.5 0 01-.5.5h-.76a.5.5 0 01-.5-.5V27A2.88 2.88 0 0129 24.12h2z" fill="#373743"></path>
</svg>