<svg width="60" height="60" viewBox="0 0 60 60" fill="none" xmlns="http://www.w3.org/2000/svg">
<circle cx="30" cy="30" r="29.5" stroke="#fff"></circle>
<path fill-rule="evenodd" clip-rule="evenodd" d="M36 21v16a1 1 0 01-1 1h-.59a1 1 0 01-.7-.29l-3-2.95a6 6 0 00-4.2-1.76H23a3 3 0 01-3-3v-2a3 3 0 013-3h3.51a6 6 0 004.25-1.76l3-2.95a1 1 0 01.7-.29H35a1 1 0 011 1zm3.2 10.4A4 4 0 0040 29a4 4 0 00-.8-2.45.54.54 0 00-.36-.2.51.51 0 00-.39.15l-.72.72a.5.5 0 00-.06.63 2 2 0 010 2.2.5.5 0 00.06.63l.72.72a.51.51 0 00.75 0zM30 39.5v-.58a.5.5 0 00-.42-.53l-.33-.06a1 1 0 01-.75-.57l-.42-2.75a4.141 4.141 0 00-1.57-.3h-2.44c.053.354.175.694.36 1l2.28 3.8a1 1 0 00.86.49h1.93a.5.5 0 00.5-.5zm2.17-14.84L34 22.83v12.34l-1.83-1.83a7.92 7.92 0 00-4.17-2.2v-4.28a7.92 7.92 0 004.17-2.2z" fill="#fff"></path>
</svg>